<svg id="Layer_1" data-name="Layer 1" xmlns="http://www.w3.org/2000/svg" viewBox="0 0 842.17 213.42"><defs><style>.cls-1,.cls-2{fill:none;}.cls-2{stroke:#000;stroke-miterlimit:10;}.cls-3{font-size:128.01px;font-family:Knewave-Regular, Knewave;}.cls-4{font-size:25.6px;font-family:Signika-Regular, Signika;}.cls-5{letter-spacing:-0.01em;}.cls-6{letter-spacing:-0.03em;}</style></defs><title>deadbugdesignlogoFINAL</title><path d="M564.38,167.58a24.3,24.3,0,0,1-2.88,2.16c.44-.31.85-.6,1.21-.88a2.48,2.48,0,0,0,.26-.19C563.57,168.22,564.05,167.84,564.38,167.58Z" transform="translate(-49.53 -4.87)"/><path d="M432.7,146a3.69,3.69,0,0,1-.68-1.52C432.38,145.31,432.65,145.86,432.7,146Z" transform="translate(-49.53 -4.87)"/><path d="M588.08,127.54a.67.67,0,0,0-.67.67v1.15a.69.69,0,0,1-.38.61c-1.87.89-10,5.18-9.42,11.82a.14.14,0,0,1,0,.09c-.12,1-2.4,17.6-12.64,25.2l-.06,0-.12.1-.17.14,0,0-.11.1-.08.07c-.33.26-.81.64-1.41,1.09a2.48,2.48,0,0,1-.26.19c-.36.28-.77.57-1.21.88l-.06,0c-3.78,2.65-10.23,6.48-16.94,7.44,0,0-8.28,1.51-16.56,2.26s-28.59.75-29.34.75h-.05l-21.05-1.5a30.34,30.34,0,0,1-8.47-2,3.55,3.55,0,0,1-2.18-3.11l-.15-2.8a3.06,3.06,0,0,0-1.13-2.23h-.49a20.13,20.13,0,0,1-11.75-3.75h-.06l-.11,0A43.51,43.51,0,0,1,432.71,146h0v0c-.05-.1-.32-.65-.68-1.52a29.89,29.89,0,0,1-2.33-10.39.62.62,0,0,0,0-.23l-1.25-3.12a.66.66,0,0,0-.77-.4c-4.27.94-32,6.61-48.74-1.45a.67.67,0,0,1-.39-.61v-.73a.67.67,0,0,1,1-.6c1.52.75,4.51,2.06,6.71,1.85a.67.67,0,0,0,.6-.67v-.26a.68.68,0,0,1,.68-.67h1.43a.55.55,0,0,1,.28.06,31.18,31.18,0,0,0,14.93,2.2c8-.66,20.69-2.51,23.52-2.93a.67.67,0,0,0,.57-.66v-3.27a.67.67,0,0,1,.67-.67H429a.67.67,0,0,0,.67-.67v-.66a.69.69,0,0,1,.89-.64l1,.34a.7.7,0,0,0,.69-.17l1.77-1.77a.68.68,0,0,0,.19-.47v-1.78a.67.67,0,0,0-.11-.37l-1.28-1.93a.57.57,0,0,1-.11-.36v-1.15a.82.82,0,0,0-.07-.3l-.62-1.22a.82.82,0,0,1-.07-.3v-2.85s0-1.29,2.37-1.49a.68.68,0,0,1,.73.58l.28,2a.28.28,0,0,1,0,.09v2.75a.68.68,0,0,0,.13.39L445,125.1a.71.71,0,0,1,.13.4v3.93a.68.68,0,0,0,.3.57l1.68,1.12a.67.67,0,0,0,.58.07l1.85-.61a.76.76,0,0,1,.21,0h1.84a.69.69,0,0,0,.52-.24l.15-.18,4.13-4.82.05-.06a8.39,8.39,0,0,1,6.38-3.73.65.65,0,0,1,.54.26l-.17-.27v-3.76a60.14,60.14,0,0,1-5.26-17.32c-1.51-3.76-.76-6-.76-6-1.5-3-1.5-6.77-1.5-9a3.35,3.35,0,0,1,2.26-3V80.11c0-2.26,3.76-6.78,3.76-6.78l1.2-2,1.77,1a24.42,24.42,0,0,0-2.22,4.78l-2.26,3v2.26a3.29,3.29,0,0,1,2.26,3c0,6.77,1.51,9.78,1.51,9.78l4.51,19.58.38,4.14v3s-.73,2.92-2.91,3.73h0l.27.4,1.13-.11a10.2,10.2,0,0,0,4.89-3.65s.75-3.77,3-5.27c0,0,4.52-5.27,14.3-9l.76-.75,1.5-3.76s0-6,2.26-10.54a6.6,6.6,0,0,0,1.51-4.52c0-3,.75-6,1.5-6l.75.75,3.75-5.35,1.52-2.18,1.51.75V78.6l-.4.61-4.12,6.17.75.75s-1.5,0-2.25,2.26-.76,6.77-3,10.54a17,17,0,0,0-1.95,4.68c-.11.42-.22.87-.31,1.34v3h.75l6-5.27,3-.75.76-1.51,1.5-6h1.51s.75,3-1.51,9l-1.5,4.51s-6,8.28-10.54,9c0,0-9,5.27-11.3,7.52a.3.3,0,0,1-.08.08l.81-.08h2.9a.65.65,0,0,0,.27,0l26.2-11.23,0,0c.33-.16,6.69-3.29,9.92-3.09a.66.66,0,0,1,.33.12l1.07.32-.7,2.35a.33.33,0,0,1-.1.15.55.55,0,0,1-.11.33l-1.17,1.77a.67.67,0,0,0,0,.67l.4.79a.67.67,0,0,0,.6.37h2.59l-.65-3.28a.66.66,0,0,1,.34-.72l17.58-9.53.09,0,6-4.49s.75-1.51,6-1.51H555l0-5.27h.75c.73-2.92.75-14.38.75-15a.13.13,0,0,0,0-.06,38.81,38.81,0,0,1,.74-16.45.33.33,0,0,0,0-.17c-.59-3.92,1.39-19.07,2.06-24a.55.55,0,0,1,.93-.3,1.42,1.42,0,0,0,1.54.27c2.86-2.14,3-9,3-9.73a.24.24,0,0,1,0-.12c3.44-9.14-8.15-18.26-9.66-19.39a.46.46,0,0,1-.14-.22.37.37,0,0,1,0-.11v-1a.42.42,0,0,1,.15-.32.33.33,0,0,1,.16-.07l2.49-.63a.42.42,0,0,1,.37.1,37.37,37.37,0,0,1,10.36,17.1.32.32,0,0,1,0,.14l-.69,5.49v.06a.41.41,0,0,0,.4.4,1,1,0,0,1,1,1.09c-.49,5.38-4.51,8.69-5.22,8.69s-.72,1.48-.74,2a.41.41,0,0,0,.15.35l1.89,1.41a1.3,1.3,0,0,1,.34,1.69,12.14,12.14,0,0,0-1.64,5.8,63.38,63.38,0,0,1-2.26,13.55c-.75,2.26-1.5,4.52-.75,16.57s-.38,9.41-.38,12.42c0,2.19-1.59,5.57-2.46,7.25a1.68,1.68,0,0,1-1.68.91l-1.18-.14a.38.38,0,0,1-.32-.24v1.71a.67.67,0,0,0,.67.67h.92a.68.68,0,0,1,.67.67v.51a.72.72,0,0,1-.15.42,1.14,1.14,0,0,1-.11.11l-.08.07-7.15,5.71-.1.07-22.53,12v.76l.46.46a.68.68,0,0,0,.69.16l1.76-.59a.76.76,0,0,1,.21,0H534l4.74,1.12.13-.05c.72-.74,9.88-10.13,18.74-18.78.09-.08.17-.17.27-.25,6.64-6.48,13.06-12.48,15.57-14a18,18,0,0,1,.31,1.86s0,.05,0,.07c.74,0,2.83-.18,6.09-3.43a25,25,0,0,0,5.27-17.32l.37-1.13a8.51,8.51,0,0,1,.76,7.53c-1.51,4.52-.76,5.27-6,12.05,0,0-3.44,3.32-6.37,3.66a4.48,4.48,0,0,1-.79,3.11c-1.5,1.51-13.55,9-16.56,13.55,0,0-8.23,8.82-12.72,11.93a26.38,26.38,0,0,1,3.69-.26,25.82,25.82,0,0,1,9.7,1.87.65.65,0,0,0,.24-.06l2.68-1.34a.59.59,0,0,1,.36-.07c1.71.17,14.46,1.52,17,2.9a.66.66,0,0,0,.33.09h9.43a.67.67,0,0,1,.34.09,3.24,3.24,0,0,1,1.12,1.19A.68.68,0,0,1,588.08,127.54Z" transform="translate(-49.53 -4.87)"/><path d="M491.8,47v2.25h-1.5a.74.74,0,0,1-.76.76c-.75,0-1.5-1.51-1.5-1.51h-2.26v.75h-2.26V50l-.75.75-2.26,1.51v1.5l-3,2.26v.75l.75.75A27.15,27.15,0,0,0,470,65.05a44.61,44.61,0,0,0-5.31,7.27l-1.77-1,4.07-7,6-9h2.26V53h2.26V50.75L482,47a5.54,5.54,0,0,1,4.52-.76h2.26C490.3,45.48,491.8,47,491.8,47Z" transform="translate(-49.53 -4.87)"/><line class="cls-1" x1="414.04" y1="116.27" x2="414.04" y2="116.27"/><line class="cls-1" x1="414.04" y1="116.27" x2="414.04" y2="116.27"/><path class="cls-2" d="M465.94,125.63" transform="translate(-49.53 -4.87)"/><path class="cls-2" d="M494.06,54.51s.38-5.64-2.64-5.64" transform="translate(-49.53 -4.87)"/><path d="M524.92,105.7l-1.46,4.87-1.07-.32a10.74,10.74,0,0,0-.1-4.92c-.75-3-3-12.8-3.76-14.31s-1.1-9.4-1.13-10.11a.16.16,0,0,0,0-.09,49.24,49.24,0,0,1-3-10.27.31.31,0,0,1,.18-.33l1.17-.59a.31.31,0,0,0,.16-.18c.23-.73,1.35-4.46.75-6.52a.29.29,0,0,0-.16-.2l-1.25-.62a.29.29,0,0,1-.16-.2l0,.13s0,5.27-1.51,8.28c0,0,0,2.26-.75,3,0,0-3,16.57-6,21.08h-1.51l.08-.34h0l2.93-12.46,1.51-6,.75-6h.75L512.88,59h1.51V57.57a.19.19,0,0,0,0-.08,4.16,4.16,0,0,0-2.92-2.89,1,1,0,0,1-.84-1v-.3a.31.31,0,0,0-.31-.31H507.9a1,1,0,0,1-1-1v-.15a.33.33,0,0,0-.32-.32h-3.88a.31.31,0,0,1-.32-.31V50.07a.23.23,0,0,1,0-.14c.16-.29.81-1.44,1.47-1.44l3,.75h2.88a.31.31,0,0,1,.22.09L512,51.42a.37.37,0,0,0,.19.09,4.67,4.67,0,0,1,3.52,2.72.31.31,0,0,0,.41.15l1.06-.53a.32.32,0,0,0,.18-.29V49.34a.27.27,0,0,1,.05-.18l1.4-2.09a.27.27,0,0,0,0-.18l.38-3.29.38-.38V32a.2.2,0,0,0,0-.13,7.45,7.45,0,0,1-.72-2.2c0-.29.34-.47.76-.58h0l.75.58a3.43,3.43,0,0,0,1.12-1.11l.76-.77-.75,2.26-.38.37-.38,6.4-.37.38V47a.15.15,0,0,1,0,.06c-.07.36-.8,3.68-2.17,5.15a.3.3,0,0,0-.08.21v3.51a.31.31,0,0,1-.09.22l-1,1a.31.31,0,0,0,.11.51,3.1,3.1,0,0,1,1.71,2,.37.37,0,0,0,.13.17,2.67,2.67,0,0,1,1.42,2.2v4.48a.25.25,0,0,1,0,.08,15.45,15.45,0,0,1-1.3,3.48.3.3,0,0,0,.09.43L521,71.74a.29.29,0,0,1,.14.26v8a.43.43,0,0,0,0,.12c.33.73,3.69,8.38,3,12a.09.09,0,0,0,0,.05,44.35,44.35,0,0,0,.75,8.25A10.14,10.14,0,0,1,524.92,105.7Z" transform="translate(-49.53 -4.87)"/><path d="M521.53,28.56a3.43,3.43,0,0,1-1.12,1.11l-.75-.58a7.15,7.15,0,0,1,1.5-.17Z" transform="translate(-49.53 -4.87)"/><polyline class="cls-2" points="507.39 0.71 504 0.71 501.74 2.97 500.99 3.72 500.99 5.23"/><path class="cls-2" d="M555.79,6.33s-3.76,3-3,5.27" transform="translate(-49.53 -4.87)"/><path class="cls-2" d="M522.67,25.91a8.16,8.16,0,0,1-1.14,2.65" transform="translate(-49.53 -4.87)"/><path class="cls-2" d="M519.66,29.09c-1.14-.88-3.23-2.43-3.77-2.43" transform="translate(-49.53 -4.87)"/><path class="cls-2" d="M503.09,50.75a3.94,3.94,0,0,0-3.76.75l-.75,2.26v1.51" transform="translate(-49.53 -4.87)"/><path class="cls-2" d="M503.85,50.75v3.76a3.33,3.33,0,0,1,.75,2.26" transform="translate(-49.53 -4.87)"/><path class="cls-2" d="M502.34,77.85s-4.52-.75-6,1.51" transform="translate(-49.53 -4.87)"/><path class="cls-2" d="M503.85,78.6s.75.76.75,3a7.85,7.85,0,0,0-.75,3" transform="translate(-49.53 -4.87)"/><text class="cls-3" transform="translate(19.52 165.27)">DEAD</text><text class="cls-4" transform="translate(693.32 203.04)">DESIGN <tspan class="cls-5" x="92.34" y="0">C</tspan><tspan class="cls-6" x="107.63" y="0">O</tspan><tspan x="123.71" y="0">.</tspan></text><text class="cls-3" transform="translate(573.27 166.7)">BUG</text><polyline class="cls-2" points="386.92 45.36 0.5 45.36 0.5 194.56 689.17 194.56"/><polyline class="cls-2" points="538.9 45.36 841.67 45.36 841.67 194.56 822.92 194.59"/></svg>